<svg xmlns="http://www.w3.org/2000/svg" width="768" height="768" viewBox="0 0 768 768">
<path d="M 338,545 L 341,545 L 342,546 L 346,546 L 347,547 L 351,547 L 347,547 L 346,546 L 342,546 L 341,545 Z" fill="orange" stroke="none"/><path d="M 192,465 L 189,468 L 188,468 L 188,469 L 187,470 L 187,471 L 184,474 L 184,475 L 183,476 L 183,477 L 181,479 L 181,480 L 182,481 L 182,482 L 181,483 L 180,482 L 179,483 L 179,484 L 178,485 L 178,486 L 176,488 L 176,489 L 175,490 L 175,491 L 172,494 L 172,496 L 170,498 L 170,499 L 169,500 L 169,501 L 167,503 L 167,504 L 166,505 L 166,506 L 165,507 L 165,508 L 163,510 L 163,511 L 161,513 L 161,514 L 160,515 L 161,515 L 162,516 L 160,518 L 159,517 L 158,518 L 158,519 L 157,520 L 157,521 L 156,522 L 156,523 L 154,525 L 154,526 L 153,527 L 153,528 L 152,529 L 151,528 L 152,529 L 151,530 L 151,531 L 152,532 L 152,533 L 151,534 L 150,533 L 149,534 L 149,535 L 148,536 L 148,537 L 145,540 L 145,542 L 142,545 L 142,547 L 139,550 L 139,552 L 137,554 L 137,555 L 136,556 L 136,557 L 134,559 L 134,560 L 133,561 L 133,562 L 131,564 L 131,565 L 130,566 L 131,566 L 132,567 L 130,569 L 129,568 L 128,569 L 128,570 L 127,571 L 127,572 L 126,573 L 126,574 L 124,576 L 124,577 L 123,578 L 123,579 L 121,581 L 121,582 L 122,583 L 122,584 L 121,585 L 120,584 L 119,585 L 119,586 L 118,587 L 118,588 L 115,591 L 115,592 L 114,593 L 114,594 L 112,596 L 112,598 L 110,600 L 110,601 L 109,602 L 110,602 L 111,603 L 109,605 L 108,604 L 107,605 L 107,606 L 106,607 L 106,610 L 107,611 L 107,612 L 110,615 L 111,615 L 112,616 L 114,616 L 112,616 L 111,615 L 112,614 L 146,614 L 147,615 L 146,616 L 147,616 L 147,615 L 148,614 L 152,614 L 153,615 L 153,616 L 153,615 L 154,614 L 155,614 L 156,615 L 155,616 L 163,616 L 162,616 L 161,615 L 162,614 L 173,614 L 174,615 L 174,616 L 176,616 L 175,616 L 174,615 L 175,614 L 178,614 L 179,615 L 179,616 L 183,616 L 183,615 L 184,614 L 185,615 L 185,616 L 188,616 L 186,616 L 185,615 L 186,614 L 191,614 L 192,615 L 191,616 L 192,616 L 192,615 L 193,614 L 209,614 L 210,615 L 210,616 L 210,615 L 211,614 L 215,614 L 216,615 L 216,616 L 217,616 L 216,615 L 217,614 L 221,614 L 222,615 L 221,616 L 222,616 L 222,615 L 223,614 L 233,614 L 234,615 L 234,616 L 237,616 L 235,616 L 234,615 L 235,614 L 242,614 L 243,615 L 243,616 L 243,615 L 244,614 L 245,615 L 245,616 L 246,616 L 245,615 L 246,614 L 251,614 L 252,615 L 251,616 L 253,616 L 254,617 L 255,616 L 255,615 L 256,614 L 269,614 L 270,615 L 269,616 L 272,616 L 274,614 L 275,614 L 276,615 L 275,616 L 279,616 L 279,615 L 280,614 L 284,614 L 285,615 L 284,616 L 288,616 L 286,616 L 285,615 L 286,614 L 293,614 L 294,615 L 293,616 L 295,616 L 294,615 L 295,614 L 302,614 L 303,615 L 302,616 L 299,616 L 303,616 L 303,615 L 304,614 L 308,614 L 309,615 L 309,616 L 309,615 L 310,614 L 311,614 L 312,615 L 311,616 L 313,616 L 312,615 L 313,614 L 314,614 L 315,615 L 315,616 L 315,615 L 316,614 L 317,615 L 317,616 L 319,616 L 318,616 L 317,615 L 318,614 L 326,614 L 327,615 L 327,616 L 327,615 L 328,614 L 350,614 L 351,615 L 350,616 L 347,616 L 351,616 L 351,615 L 352,614 L 379,614 L 380,615 L 379,616 L 371,616 L 380,616 L 381,615 L 384,615 L 385,614 L 387,614 L 384,614 L 383,613 L 384,612 L 388,612 L 389,611 L 391,611 L 392,612 L 391,613 L 390,613 L 392,613 L 393,612 L 394,612 L 395,611 L 396,611 L 395,611 L 394,610 L 395,609 L 397,609 L 398,610 L 399,610 L 400,609 L 401,609 L 402,608 L 401,608 L 400,607 L 401,606 L 403,606 L 404,607 L 405,607 L 407,605 L 406,604 L 407,603 L 408,603 L 409,604 L 410,603 L 411,603 L 414,600 L 415,600 L 418,597 L 419,598 L 418,597 L 420,595 L 421,595 L 427,589 L 427,588 L 432,583 L 432,582 L 434,580 L 435,581 L 434,580 L 436,578 L 436,577 L 437,576 L 437,575 L 439,573 L 439,572 L 440,571 L 440,570 L 442,568 L 442,567 L 441,566 L 441,565 L 442,564 L 443,565 L 444,564 L 444,563 L 445,562 L 445,561 L 444,562 L 443,561 L 443,560 L 444,559 L 446,559 L 446,558 L 447,557 L 447,556 L 448,555 L 448,553 L 447,552 L 447,550 L 448,549 L 449,550 L 449,551 L 449,550 L 450,549 L 450,547 L 451,546 L 451,544 L 451,545 L 450,546 L 449,545 L 449,543 L 450,542 L 450,537 L 451,536 L 452,537 L 452,540 L 452,538 L 453,537 L 453,532 L 454,531 L 454,524 L 454,531 L 453,532 L 452,531 L 452,514 L 450,514 L 449,513 L 450,512 L 451,512 L 450,511 L 449,511 L 448,512 L 447,512 L 446,513 L 447,514 L 446,515 L 445,515 L 442,518 L 442,520 L 439,523 L 439,525 L 436,528 L 436,529 L 434,531 L 434,532 L 433,533 L 433,534 L 430,537 L 431,537 L 432,538 L 430,540 L 429,539 L 427,541 L 426,540 L 427,541 L 425,543 L 425,544 L 417,552 L 418,553 L 416,555 L 415,555 L 414,554 L 415,553 L 415,552 L 414,552 L 415,553 L 413,555 L 412,555 L 410,557 L 409,557 L 408,558 L 409,559 L 408,560 L 407,560 L 406,559 L 405,559 L 404,560 L 403,560 L 402,561 L 401,561 L 402,561 L 403,562 L 402,563 L 400,563 L 399,564 L 397,564 L 396,563 L 397,562 L 398,562 L 396,562 L 395,563 L 393,563 L 392,564 L 389,564 L 392,564 L 393,565 L 392,566 L 387,566 L 386,567 L 188,567 L 187,566 L 188,565 L 384,565 L 189,565 L 188,564 L 188,563 L 189,562 L 189,561 L 190,560 L 190,559 L 192,557 L 192,556 L 193,555 L 192,555 L 191,554 L 193,552 L 194,553 L 195,552 L 195,551 L 196,550 L 195,550 L 194,549 L 195,548 L 195,547 L 196,546 L 197,547 L 197,548 L 197,547 L 199,545 L 199,544 L 200,543 L 200,542 L 202,540 L 202,539 L 203,538 L 203,537 L 205,535 L 205,534 L 206,533 L 206,532 L 208,530 L 208,528 L 211,525 L 211,523 L 214,520 L 214,518 L 216,516 L 216,515 L 217,514 L 217,513 L 218,512 L 218,511 L 219,510 L 219,504 L 218,503 L 218,502 L 218,503 L 217,504 L 216,503 L 216,502 L 215,501 L 215,500 L 216,499 L 217,500 L 216,499 L 216,498 L 215,497 L 215,496 L 214,497 L 212,495 L 213,494 L 214,494 L 213,493 L 213,492 L 211,490 L 211,488 L 210,487 L 210,486 L 208,484 L 208,482 L 205,479 L 205,477 L 203,475 L 203,474 L 202,473 L 202,472 L 201,471 L 201,470 L 196,465 Z" fill="orange" stroke="none"/><path d="M 364,92 L 363,93 L 364,93 L 365,94 L 364,95 L 362,95 L 361,94 L 358,97 L 358,98 L 357,99 L 357,100 L 354,103 L 354,104 L 353,105 L 353,106 L 351,108 L 351,109 L 349,111 L 349,112 L 348,113 L 348,114 L 346,116 L 346,117 L 344,119 L 344,120 L 343,121 L 343,122 L 341,124 L 341,125 L 340,126 L 341,126 L 342,127 L 340,129 L 339,128 L 338,129 L 338,130 L 336,132 L 336,133 L 334,135 L 334,136 L 332,138 L 332,139 L 331,140 L 331,141 L 328,144 L 328,145 L 329,146 L 328,147 L 327,147 L 325,149 L 325,150 L 323,152 L 323,153 L 322,154 L 322,155 L 319,158 L 319,159 L 320,160 L 320,161 L 319,162 L 318,161 L 316,163 L 316,164 L 314,166 L 314,167 L 313,168 L 313,169 L 310,172 L 310,174 L 307,177 L 307,178 L 305,180 L 305,181 L 304,182 L 304,183 L 302,185 L 302,186 L 301,187 L 301,188 L 298,191 L 298,192 L 299,193 L 299,194 L 298,195 L 297,194 L 295,196 L 295,197 L 293,199 L 293,200 L 292,201 L 292,202 L 290,204 L 290,205 L 289,206 L 288,206 L 289,207 L 286,210 L 286,212 L 283,215 L 283,216 L 282,217 L 282,218 L 280,220 L 280,221 L 279,222 L 279,223 L 277,225 L 277,226 L 275,228 L 275,229 L 274,230 L 274,231 L 271,234 L 271,235 L 270,236 L 270,237 L 268,239 L 268,240 L 267,241 L 267,242 L 265,244 L 265,245 L 263,247 L 263,248 L 262,249 L 262,250 L 259,253 L 259,255 L 256,258 L 256,259 L 255,260 L 255,261 L 253,263 L 253,264 L 251,266 L 251,267 L 250,268 L 250,269 L 249,270 L 249,271 L 247,273 L 247,274 L 245,276 L 245,277 L 244,278 L 244,279 L 242,281 L 242,282 L 240,284 L 240,285 L 239,286 L 239,287 L 238,288 L 238,289 L 237,290 L 237,291 L 235,293 L 235,294 L 233,296 L 233,297 L 232,298 L 232,299 L 233,300 L 233,301 L 232,302 L 231,301 L 230,302 L 230,303 L 229,304 L 229,306 L 227,308 L 227,309 L 226,310 L 226,311 L 227,312 L 227,313 L 226,314 L 225,313 L 224,314 L 224,315 L 223,316 L 223,317 L 224,316 L 225,317 L 225,318 L 224,319 L 222,319 L 222,320 L 221,321 L 221,322 L 220,323 L 220,324 L 221,323 L 222,324 L 222,325 L 221,326 L 219,326 L 219,327 L 218,328 L 218,330 L 217,331 L 217,332 L 217,331 L 218,330 L 219,331 L 219,333 L 218,334 L 216,334 L 216,335 L 215,336 L 215,338 L 214,339 L 214,340 L 215,341 L 215,343 L 214,344 L 213,344 L 213,345 L 212,346 L 212,349 L 211,350 L 211,352 L 212,353 L 212,357 L 211,358 L 210,357 L 210,355 L 210,357 L 211,358 L 211,362 L 210,363 L 209,362 L 209,359 L 209,361 L 208,362 L 208,367 L 208,363 L 209,362 L 210,363 L 210,368 L 209,369 L 209,405 L 210,406 L 210,411 L 209,412 L 208,411 L 208,407 L 208,411 L 209,412 L 209,416 L 210,417 L 210,420 L 210,417 L 211,416 L 212,417 L 212,421 L 211,422 L 211,425 L 212,426 L 212,428 L 213,429 L 213,431 L 214,430 L 215,431 L 215,432 L 214,433 L 214,435 L 215,436 L 215,438 L 216,439 L 216,440 L 216,439 L 217,438 L 218,439 L 218,441 L 217,442 L 217,444 L 218,445 L 218,446 L 219,447 L 219,448 L 221,448 L 222,449 L 222,450 L 221,451 L 220,450 L 220,451 L 221,452 L 221,453 L 222,454 L 223,453 L 224,454 L 224,455 L 223,456 L 223,457 L 224,458 L 224,459 L 225,460 L 226,459 L 228,461 L 227,462 L 226,462 L 227,463 L 227,464 L 228,465 L 228,466 L 229,467 L 229,468 L 232,471 L 232,472 L 234,474 L 234,475 L 235,476 L 235,477 L 239,481 L 239,482 L 241,484 L 241,485 L 247,491 L 247,493 L 248,492 L 249,493 L 249,494 L 254,499 L 255,498 L 257,500 L 256,501 L 259,504 L 260,504 L 267,511 L 268,511 L 271,514 L 272,514 L 276,518 L 277,518 L 278,519 L 279,519 L 280,520 L 281,519 L 282,519 L 283,520 L 282,521 L 284,523 L 285,523 L 286,522 L 287,522 L 288,523 L 287,524 L 289,526 L 288,527 L 289,526 L 290,526 L 291,525 L 292,525 L 293,526 L 292,527 L 293,528 L 294,528 L 295,529 L 294,528 L 295,527 L 296,527 L 297,528 L 298,528 L 299,529 L 298,530 L 297,530 L 298,530 L 299,531 L 300,531 L 301,532 L 302,532 L 303,533 L 304,533 L 305,534 L 306,534 L 307,535 L 308,535 L 307,535 L 306,534 L 307,533 L 309,533 L 310,534 L 312,534 L 313,535 L 312,536 L 311,536 L 312,536 L 313,537 L 314,537 L 315,538 L 316,538 L 317,537 L 320,537 L 321,538 L 320,539 L 318,539 L 320,539 L 321,540 L 322,540 L 323,541 L 325,541 L 326,540 L 330,540 L 331,541 L 330,542 L 328,542 L 329,542 L 330,543 L 332,543 L 333,544 L 336,544 L 337,543 L 342,543 L 343,544 L 347,544 L 348,545 L 352,545 L 353,546 L 368,546 L 369,547 L 368,548 L 356,548 L 365,548 L 366,549 L 375,549 L 376,548 L 383,548 L 370,548 L 369,547 L 370,546 L 384,546 L 385,545 L 386,545 L 387,546 L 386,547 L 387,547 L 389,545 L 388,544 L 390,542 L 391,542 L 392,543 L 391,544 L 392,543 L 393,544 L 392,543 L 394,541 L 394,540 L 396,538 L 396,537 L 397,536 L 396,537 L 395,536 L 395,535 L 396,534 L 398,534 L 400,532 L 400,531 L 402,529 L 402,528 L 403,527 L 402,527 L 401,526 L 403,524 L 404,525 L 405,524 L 405,523 L 407,521 L 407,520 L 409,518 L 409,517 L 411,515 L 411,514 L 412,513 L 412,512 L 415,509 L 415,508 L 416,507 L 416,506 L 418,504 L 418,503 L 420,501 L 420,500 L 421,499 L 421,498 L 425,494 L 425,492 L 427,490 L 427,488 L 430,485 L 430,484 L 431,483 L 431,482 L 433,480 L 433,479 L 434,478 L 434,477 L 435,476 L 436,476 L 436,474 L 438,472 L 438,471 L 439,470 L 439,469 L 441,467 L 441,466 L 442,465 L 442,464 L 444,462 L 444,461 L 445,460 L 445,459 L 448,456 L 448,455 L 449,454 L 449,453 L 450,452 L 450,451 L 452,449 L 452,448 L 454,446 L 454,445 L 455,444 L 455,443 L 457,441 L 457,440 L 458,439 L 458,438 L 460,436 L 459,436 L 458,435 L 460,433 L 461,434 L 462,433 L 462,432 L 463,431 L 463,430 L 465,428 L 465,427 L 466,426 L 466,425 L 468,423 L 468,422 L 469,421 L 469,420 L 471,418 L 471,417 L 472,416 L 472,415 L 474,413 L 474,412 L 475,411 L 475,410 L 477,408 L 477,407 L 478,406 L 478,405 L 481,402 L 481,400 L 484,397 L 484,395 L 487,392 L 486,391 L 487,390 L 493,390 L 494,391 L 493,392 L 492,392 L 493,392 L 494,393 L 494,394 L 496,396 L 496,397 L 498,399 L 498,400 L 499,401 L 499,402 L 501,404 L 501,405 L 502,406 L 502,407 L 503,408 L 503,409 L 504,410 L 505,409 L 507,411 L 506,412 L 505,412 L 507,414 L 507,415 L 508,416 L 508,417 L 509,418 L 509,419 L 511,421 L 511,422 L 513,424 L 513,425 L 514,426 L 514,427 L 516,429 L 516,430 L 517,431 L 517,432 L 519,434 L 519,435 L 520,436 L 520,437 L 522,439 L 522,440 L 523,441 L 523,442 L 524,443 L 524,444 L 526,446 L 526,447 L 527,448 L 527,449 L 529,451 L 529,452 L 531,454 L 531,455 L 532,456 L 532,457 L 533,458 L 533,459 L 535,461 L 535,462 L 536,463 L 536,464 L 538,466 L 538,467 L 539,468 L 539,469 L 541,471 L 541,472 L 542,473 L 542,474 L 543,475 L 543,474 L 544,473 L 545,474 L 545,475 L 546,476 L 545,477 L 544,477 L 545,478 L 545,479 L 547,481 L 546,482 L 547,482 L 548,483 L 548,484 L 549,485 L 550,484 L 552,486 L 551,487 L 550,487 L 551,488 L 551,489 L 552,490 L 552,491 L 555,494 L 555,495 L 556,496 L 556,497 L 558,499 L 558,500 L 559,501 L 559,502 L 561,504 L 561,505 L 562,506 L 562,507 L 563,508 L 563,509 L 565,511 L 565,512 L 567,514 L 567,515 L 568,516 L 568,517 L 569,518 L 569,519 L 571,521 L 571,522 L 572,523 L 572,524 L 574,526 L 574,527 L 575,528 L 575,529 L 577,531 L 577,532 L 578,533 L 578,534 L 580,536 L 580,537 L 581,538 L 580,539 L 581,539 L 583,541 L 583,542 L 584,543 L 584,544 L 586,546 L 586,547 L 587,548 L 587,549 L 589,551 L 589,552 L 590,553 L 590,554 L 592,556 L 592,557 L 593,558 L 593,559 L 595,561 L 595,563 L 598,566 L 598,567 L 599,568 L 599,569 L 600,570 L 600,571 L 601,572 L 601,573 L 604,576 L 604,578 L 606,580 L 606,581 L 607,582 L 606,583 L 607,583 L 609,585 L 609,586 L 614,591 L 615,591 L 616,592 L 659,592 L 660,591 L 661,592 L 661,591 L 664,588 L 663,587 L 663,585 L 662,584 L 662,583 L 663,582 L 664,583 L 663,582 L 663,581 L 661,579 L 661,578 L 660,577 L 660,576 L 659,575 L 658,576 L 657,575 L 657,574 L 658,573 L 658,572 L 656,570 L 656,569 L 655,568 L 655,567 L 653,565 L 653,564 L 652,563 L 652,562 L 650,560 L 650,559 L 649,558 L 649,557 L 647,555 L 647,554 L 646,553 L 646,552 L 644,550 L 644,549 L 643,548 L 643,547 L 642,546 L 642,545 L 641,544 L 641,541 L 640,541 L 637,538 L 637,537 L 636,536 L 636,535 L 634,533 L 634,532 L 633,531 L 633,530 L 631,528 L 631,527 L 630,526 L 630,525 L 628,523 L 628,521 L 625,518 L 625,517 L 624,516 L 624,515 L 622,513 L 622,512 L 623,511 L 622,511 L 619,508 L 619,506 L 617,504 L 617,503 L 616,502 L 616,501 L 615,500 L 616,499 L 615,500 L 613,498 L 613,497 L 612,496 L 612,495 L 611,494 L 611,493 L 610,492 L 610,491 L 608,489 L 608,488 L 607,487 L 607,486 L 604,483 L 604,481 L 602,479 L 601,480 L 600,479 L 600,478 L 601,477 L 601,476 L 599,474 L 599,473 L 598,472 L 598,471 L 596,469 L 596,468 L 595,467 L 595,466 L 593,464 L 593,463 L 592,462 L 592,461 L 591,460 L 591,459 L 589,457 L 589,456 L 587,454 L 587,453 L 586,452 L 586,451 L 584,449 L 584,448 L 583,447 L 583,446 L 582,445 L 582,444 L 580,442 L 580,441 L 578,439 L 578,438 L 577,437 L 577,436 L 575,434 L 575,433 L 574,432 L 574,431 L 572,429 L 572,428 L 571,427 L 571,426 L 569,424 L 569,423 L 568,422 L 568,421 L 567,420 L 567,419 L 565,417 L 565,416 L 564,415 L 564,414 L 562,412 L 562,411 L 560,409 L 560,408 L 559,407 L 559,406 L 558,405 L 558,404 L 556,402 L 556,401 L 555,400 L 555,399 L 553,397 L 553,396 L 552,395 L 552,394 L 550,392 L 550,391 L 549,390 L 549,389 L 548,388 L 547,389 L 545,387 L 546,386 L 547,386 L 546,385 L 546,384 L 544,382 L 544,381 L 543,380 L 543,379 L 541,377 L 541,376 L 540,375 L 540,374 L 538,372 L 538,371 L 537,370 L 537,369 L 535,367 L 535,366 L 534,365 L 534,364 L 532,362 L 533,361 L 529,357 L 529,355 L 526,352 L 526,350 L 523,347 L 523,345 L 521,343 L 521,342 L 519,340 L 519,339 L 518,338 L 517,339 L 516,338 L 516,337 L 517,336 L 517,335 L 515,333 L 515,332 L 514,331 L 514,330 L 511,327 L 511,326 L 510,325 L 510,324 L 509,323 L 508,323 L 507,322 L 508,321 L 508,320 L 505,317 L 505,315 L 502,312 L 502,310 L 499,307 L 499,306 L 491,298 L 490,298 L 489,299 L 487,299 L 486,298 L 487,297 L 488,297 L 487,297 L 486,296 L 353,296 L 352,297 L 350,297 L 352,297 L 353,298 L 352,299 L 349,299 L 348,298 L 347,298 L 345,300 L 346,301 L 345,302 L 344,302 L 343,301 L 336,308 L 336,309 L 333,312 L 333,313 L 330,316 L 330,317 L 328,319 L 328,320 L 325,323 L 325,324 L 322,327 L 322,328 L 323,329 L 322,330 L 321,330 L 319,332 L 319,333 L 317,335 L 317,336 L 316,337 L 316,338 L 313,341 L 313,342 L 312,343 L 312,344 L 310,346 L 310,347 L 309,348 L 309,349 L 307,351 L 306,350 L 307,351 L 307,353 L 304,356 L 304,358 L 302,360 L 302,361 L 301,362 L 302,362 L 303,363 L 301,365 L 300,364 L 300,365 L 298,367 L 298,369 L 296,371 L 296,372 L 294,374 L 294,376 L 293,377 L 293,378 L 292,379 L 292,380 L 291,381 L 291,382 L 290,383 L 290,384 L 289,385 L 289,389 L 290,390 L 291,389 L 292,390 L 296,390 L 297,391 L 298,391 L 298,390 L 314,374 L 315,374 L 321,368 L 322,368 L 324,366 L 325,366 L 327,364 L 328,365 L 328,364 L 331,361 L 332,361 L 333,360 L 334,360 L 335,359 L 334,358 L 335,357 L 336,357 L 337,358 L 338,358 L 339,357 L 340,357 L 341,356 L 340,356 L 339,355 L 340,354 L 342,354 L 343,353 L 345,353 L 346,354 L 345,355 L 344,355 L 345,355 L 346,354 L 347,354 L 348,353 L 351,353 L 352,352 L 354,352 L 355,351 L 356,351 L 357,352 L 359,350 L 366,350 L 359,350 L 358,349 L 359,348 L 369,348 L 370,347 L 405,347 L 406,348 L 426,348 L 427,347 L 428,348 L 454,348 L 455,349 L 454,350 L 450,350 L 453,350 L 455,352 L 454,353 L 453,353 L 453,354 L 451,356 L 451,357 L 450,358 L 450,359 L 448,361 L 448,362 L 446,364 L 446,365 L 445,366 L 445,367 L 443,369 L 443,370 L 442,371 L 442,372 L 440,374 L 440,375 L 439,376 L 439,377 L 437,379 L 437,380 L 436,381 L 436,382 L 434,384 L 434,385 L 433,386 L 433,387 L 431,389 L 431,390 L 430,391 L 430,392 L 428,394 L 428,395 L 427,396 L 427,397 L 426,398 L 426,399 L 424,401 L 424,402 L 425,403 L 424,404 L 423,404 L 421,402 L 420,403 L 393,403 L 392,404 L 391,404 L 392,404 L 393,405 L 392,406 L 389,406 L 389,407 L 388,408 L 388,409 L 389,410 L 389,411 L 391,413 L 391,414 L 394,417 L 394,418 L 397,421 L 397,422 L 400,425 L 400,426 L 401,427 L 401,428 L 402,429 L 402,430 L 403,431 L 403,439 L 401,441 L 401,442 L 400,443 L 400,444 L 398,446 L 398,447 L 397,448 L 397,449 L 394,452 L 394,453 L 392,455 L 392,456 L 391,457 L 391,458 L 388,461 L 388,462 L 389,463 L 389,464 L 388,465 L 387,464 L 385,466 L 385,467 L 384,468 L 384,469 L 382,471 L 382,472 L 380,474 L 380,475 L 377,478 L 377,479 L 376,480 L 376,481 L 374,483 L 374,484 L 372,486 L 372,487 L 370,489 L 370,490 L 367,493 L 367,494 L 365,496 L 364,496 L 363,497 L 354,497 L 353,496 L 348,496 L 347,497 L 341,497 L 340,496 L 341,495 L 345,495 L 342,495 L 341,494 L 338,494 L 337,493 L 335,493 L 334,494 L 331,494 L 330,493 L 331,492 L 332,492 L 331,492 L 330,491 L 329,491 L 328,490 L 326,490 L 325,491 L 323,491 L 322,490 L 323,489 L 324,489 L 323,489 L 322,488 L 321,488 L 320,487 L 319,487 L 318,488 L 316,488 L 315,487 L 316,486 L 317,486 L 316,486 L 314,484 L 313,484 L 312,485 L 311,485 L 310,484 L 311,483 L 309,481 L 308,481 L 307,482 L 306,482 L 305,481 L 306,480 L 304,478 L 303,478 L 300,475 L 299,475 L 296,472 L 295,472 L 283,460 L 283,459 L 282,459 L 281,458 L 281,457 L 277,453 L 277,452 L 276,451 L 276,450 L 274,448 L 274,447 L 271,444 L 271,442 L 269,440 L 269,439 L 268,438 L 268,436 L 266,434 L 266,433 L 265,434 L 263,432 L 264,431 L 265,431 L 265,430 L 264,429 L 264,428 L 263,427 L 263,426 L 262,426 L 261,425 L 261,424 L 262,423 L 262,422 L 261,421 L 261,419 L 260,418 L 260,416 L 259,417 L 258,416 L 258,414 L 259,413 L 259,410 L 258,409 L 258,405 L 257,404 L 257,397 L 257,404 L 256,405 L 255,404 L 255,373 L 256,372 L 257,373 L 257,379 L 257,373 L 258,372 L 258,367 L 259,366 L 259,363 L 259,366 L 258,367 L 257,366 L 257,362 L 258,361 L 258,359 L 259,358 L 260,359 L 260,357 L 261,356 L 261,354 L 262,353 L 262,351 L 262,353 L 261,354 L 260,353 L 260,350 L 262,348 L 263,348 L 263,347 L 264,346 L 264,344 L 265,343 L 265,342 L 264,341 L 266,339 L 266,338 L 268,336 L 268,333 L 269,332 L 269,331 L 271,329 L 271,328 L 270,327 L 271,326 L 272,326 L 272,325 L 274,323 L 274,321 L 276,319 L 276,318 L 277,317 L 277,316 L 279,314 L 279,313 L 280,312 L 279,312 L 278,311 L 280,309 L 281,310 L 282,309 L 282,308 L 283,307 L 282,307 L 281,306 L 283,304 L 284,305 L 285,304 L 285,303 L 286,302 L 286,301 L 287,300 L 287,299 L 289,297 L 289,296 L 291,294 L 291,293 L 292,292 L 292,291 L 294,289 L 294,288 L 295,287 L 295,286 L 297,284 L 297,283 L 299,281 L 299,280 L 300,279 L 300,278 L 301,277 L 301,276 L 305,272 L 304,272 L 303,271 L 303,270 L 304,269 L 305,270 L 306,269 L 306,268 L 307,267 L 307,266 L 310,263 L 310,262 L 311,261 L 311,260 L 313,258 L 313,257 L 314,256 L 314,255 L 316,253 L 316,252 L 317,251 L 317,250 L 319,248 L 319,247 L 322,244 L 322,242 L 325,239 L 325,237 L 329,233 L 328,233 L 327,232 L 327,231 L 328,230 L 329,231 L 331,229 L 331,228 L 332,227 L 332,226 L 334,224 L 335,224 L 334,223 L 336,221 L 336,220 L 337,219 L 336,219 L 335,218 L 336,217 L 336,216 L 337,215 L 338,216 L 338,217 L 339,216 L 339,215 L 340,214 L 340,213 L 342,211 L 342,210 L 343,209 L 343,208 L 345,206 L 345,205 L 347,203 L 347,202 L 349,200 L 349,199 L 351,197 L 351,196 L 352,195 L 352,194 L 354,192 L 354,191 L 355,190 L 355,189 L 358,186 L 358,185 L 359,184 L 359,183 L 360,182 L 360,181 L 363,178 L 364,179 L 363,178 L 363,177 L 365,175 L 368,175 L 371,178 L 371,179 L 373,181 L 373,182 L 374,183 L 374,184 L 376,186 L 376,188 L 378,190 L 378,191 L 379,192 L 379,193 L 381,195 L 381,196 L 382,197 L 382,198 L 383,199 L 383,200 L 385,202 L 385,204 L 387,206 L 387,207 L 389,207 L 390,208 L 390,209 L 389,210 L 388,209 L 390,211 L 390,212 L 391,213 L 391,215 L 393,217 L 393,218 L 394,219 L 394,220 L 395,221 L 395,222 L 396,223 L 397,222 L 399,224 L 399,225 L 398,226 L 397,225 L 398,226 L 398,227 L 399,228 L 399,229 L 400,230 L 400,231 L 401,232 L 401,233 L 403,235 L 403,237 L 405,239 L 405,240 L 406,241 L 406,242 L 407,243 L 407,244 L 409,246 L 409,248 L 411,250 L 411,251 L 415,255 L 415,256 L 416,256 L 417,257 L 418,257 L 419,258 L 422,258 L 423,259 L 425,259 L 426,258 L 431,258 L 432,259 L 431,260 L 429,260 L 431,260 L 432,261 L 434,261 L 435,262 L 437,262 L 438,263 L 438,262 L 439,261 L 443,261 L 444,262 L 443,263 L 440,263 L 442,263 L 443,264 L 446,264 L 447,265 L 449,265 L 450,264 L 454,264 L 455,265 L 454,266 L 452,266 L 454,266 L 455,267 L 457,267 L 458,268 L 461,268 L 462,267 L 466,267 L 467,268 L 466,269 L 464,269 L 466,269 L 467,270 L 470,270 L 471,269 L 472,269 L 474,267 L 474,263 L 473,262 L 472,263 L 470,261 L 471,260 L 472,260 L 471,259 L 471,258 L 469,256 L 469,254 L 466,251 L 466,249 L 463,246 L 463,245 L 462,244 L 462,243 L 461,242 L 460,243 L 459,242 L 459,241 L 460,240 L 460,239 L 458,237 L 458,236 L 457,235 L 457,234 L 455,232 L 455,231 L 454,230 L 454,229 L 452,227 L 452,226 L 451,225 L 451,224 L 449,222 L 449,221 L 448,220 L 448,219 L 447,218 L 447,217 L 445,215 L 445,214 L 444,213 L 444,212 L 442,210 L 442,209 L 441,208 L 441,207 L 439,205 L 439,204 L 437,202 L 437,201 L 436,200 L 436,199 L 435,198 L 435,197 L 433,195 L 433,194 L 432,193 L 432,192 L 430,190 L 430,187 L 429,187 L 427,185 L 427,184 L 426,183 L 426,182 L 424,180 L 424,179 L 423,178 L 423,177 L 421,175 L 421,174 L 420,173 L 420,172 L 418,170 L 419,169 L 418,169 L 417,168 L 417,167 L 415,165 L 415,164 L 414,163 L 414,162 L 412,160 L 412,159 L 411,158 L 411,157 L 409,155 L 409,154 L 408,153 L 408,152 L 406,150 L 406,148 L 403,145 L 403,143 L 400,140 L 400,138 L 397,135 L 397,133 L 394,130 L 394,129 L 393,128 L 393,127 L 391,125 L 391,124 L 390,123 L 390,122 L 388,120 L 388,119 L 387,118 L 387,117 L 385,115 L 385,114 L 384,113 L 384,112 L 383,111 L 383,110 L 380,107 L 380,106 L 379,105 L 379,104 L 377,102 L 377,101 L 376,100 L 376,99 L 369,92 Z" fill="orange" stroke="none"/>
</svg>